<svg xmlns="http://www.w3.org/2000/svg" width="34" height="30" fill="none"><g clip-path="url(#a)"><path fill="#fff" d="M33.17 3.53a12 12 0 0 1-3.8 1.22 7.5 7.5 0 0 0 2.9-4.2c-1.28.88-2.7 1.5-4.2 1.85A6.18 6.18 0 0 0 23.18 0c-3.63 0-6.6 3.39-6.6 7.57 0 .6.06 1.18.17 1.73-5.5-.32-10.4-3.34-13.66-7.9a8.32 8.32 0 0 0-.9 3.79 7.77 7.77 0 0 0 2.96 6.28c-1.1 0-2.12-.35-3.02-.88v.05c0 3.67 2.29 6.74 5.32 7.43-.97.3-2 .35-2.98.12a7.6 7.6 0 0 0 2.35 3.77 6.1 6.1 0 0 0 3.83 1.5 12.17 12.17 0 0 1-9.82 3.13A17.12 17.12 0 0 0 11 30c12.18 0 18.87-11.54 18.87-21.55l-.01-.99c1.3-1.05 2.4-2.4 3.3-3.93Z"/></g><defs><clipPath id="a"><path fill="#fff" d="M0 0h34v30H0z"/></clipPath></defs></svg>