<svg xmlns="http://www.w3.org/2000/svg" width="50" height="30" fill="none"><g clip-path="url(#a)"><path fill="#fff" d="M20 21.43 32.98 15 20 8.57v12.86ZM48.9 4.65c.33 1 .55 2.36.7 4.07.17 1.72.25 3.2.25 4.48L50 15c0 4.7-.4 8.14-1.1 10.35-.63 1.93-2.07 3.17-4.32 3.7-1.18.29-3.33.48-6.63.6-3.25.16-6.23.22-8.98.22L25 30c-10.47 0-17-.34-19.57-.94-2.25-.54-3.7-1.78-4.33-3.71-.33-1-.55-2.36-.7-4.07-.18-1.72-.25-3.2-.25-4.48L0 15c0-4.7.4-8.14 1.1-10.35.63-1.93 2.07-3.17 4.32-3.7C6.6.65 8.75.46 12.05.34 15.3.18 18.27.12 21.02.12L25 0c10.48 0 17 .34 19.58.94 2.25.54 3.7 1.78 4.32 3.71Z"/></g><defs><clipPath id="a"><path fill="#fff" d="M0 0h50v30H0z"/></clipPath></defs></svg>